<?xml version="1.0" encoding="UTF-8" standalone="no"?>
<!DOCTYPE svg PUBLIC "-//W3C//DTD SVG 1.1//EN"
 "http://www.w3.org/Graphics/SVG/1.1/DTD/svg11.dtd">
<!-- Generated by graphviz version 2.40.1 (0)
 -->
<!-- Title: Communication Pages: 1 -->
<svg width="778pt" height="527pt"
 viewBox="0.00 0.00 778.00 526.50" xmlns="http://www.w3.org/2000/svg" xmlns:xlink="http://www.w3.org/1999/xlink">
<g id="graph0" class="graph" transform="scale(1 1) rotate(0) translate(4 522.5)">
<title>Communication</title>
<polygon fill="#ffffff" stroke="transparent" points="-4,4 -4,-522.5 774,-522.5 774,4 -4,4"/>
<g id="clust1" class="cluster">
<title>cluster_legend</title>
<polygon fill="none" stroke="#000000" points="8,-8 8,-155 447.5,-155 447.5,-8 8,-8"/>
<text text-anchor="middle" x="227.75" y="-139.8" font-family="Times,serif" font-size="14.00" fill="#000000">Legend</text>
</g>
<g id="clust2" class="cluster">
<title>clusterclient</title>
<polygon fill="none" stroke="#000000" points="21.5,-250 21.5,-473 154.5,-473 154.5,-250 21.5,-250"/>
<text text-anchor="middle" x="88" y="-457.8" font-family="Times,serif" font-size="14.00" fill="#000000">Client</text>
</g>
<g id="clust3" class="cluster">
<title>clustersimserver</title>
<polygon fill="none" stroke="#000000" points="345,-177 345,-473 480,-473 480,-177 345,-177"/>
<text text-anchor="middle" x="412.5" y="-457.8" font-family="Times,serif" font-size="14.00" fill="#000000">SimServer</text>
</g>
<g id="clust4" class="cluster">
<title>clustermcstas</title>
<polygon fill="none" stroke="#000000" points="645,-31 645,-327 770,-327 770,-31 645,-31"/>
<text text-anchor="middle" x="707.5" y="-311.8" font-family="Times,serif" font-size="14.00" fill="#000000">McStas Executable</text>
</g>
<!-- item1 -->
<g id="node1" class="node">
<title>item1</title>
</g>
<!-- key1 -->
<g id="node3" class="node">
<title>key1</title>
</g>
<!-- item1&#45;&gt;key1 -->
<g id="edge1" class="edge">
<title>item1&#45;&gt;key1</title>
<path fill="none" stroke="#000000" d="M160.0171,-106C226.572,-106 322.8282,-106 375.1741,-106"/>
<polygon fill="#000000" stroke="#000000" points="375.3437,-109.5001 385.3437,-106 375.3436,-102.5001 375.3437,-109.5001"/>
</g>
<!-- item2 -->
<g id="node2" class="node">
<title>item2</title>
</g>
<!-- key2 -->
<g id="node4" class="node">
<title>key2</title>
</g>
<!-- item2&#45;&gt;key2 -->
<g id="edge2" class="edge">
<title>item2&#45;&gt;key2</title>
<path fill="none" stroke="#000000" stroke-dasharray="5,2" d="M159.6146,-34C226.1427,-34 322.6045,-34 375.0778,-34"/>
<polygon fill="#000000" stroke="#000000" points="375.2725,-37.5001 385.2725,-34 375.2725,-30.5001 375.2725,-37.5001"/>
<text text-anchor="middle" x="256.5" y="-37.8" font-family="Times,serif" font-size="14.00" fill="#000000">Via the Cameo Server</text>
</g>
<!-- ClientCameoApp -->
<g id="node5" class="node">
<title>ClientCameoApp</title>
<path fill="none" stroke="#000000" d="M41.5,-405C41.5,-405 134.5,-405 134.5,-405 140.5,-405 146.5,-411 146.5,-417 146.5,-417 146.5,-429 146.5,-429 146.5,-435 140.5,-441 134.5,-441 134.5,-441 41.5,-441 41.5,-441 35.5,-441 29.5,-435 29.5,-429 29.5,-429 29.5,-417 29.5,-417 29.5,-411 35.5,-405 41.5,-405"/>
<text text-anchor="middle" x="88" y="-419.3" font-family="Times,serif" font-size="14.00" fill="#000000">ClientCameoApp</text>
</g>
<!-- CS -->
<g id="node8" class="node">
<title>CS</title>
<path fill="none" stroke="#000000" d="M375.5,-482C375.5,-482 449.5,-482 449.5,-482 455.5,-482 461.5,-488 461.5,-494 461.5,-494 461.5,-506 461.5,-506 461.5,-512 455.5,-518 449.5,-518 449.5,-518 375.5,-518 375.5,-518 369.5,-518 363.5,-512 363.5,-506 363.5,-506 363.5,-494 363.5,-494 363.5,-488 369.5,-482 375.5,-482"/>
<text text-anchor="middle" x="412.5" y="-496.3" font-family="Times,serif" font-size="14.00" fill="#000000">Cameo Server</text>
</g>
<!-- ClientCameoApp&#45;&gt;CS -->
<g id="edge4" class="edge">
<title>ClientCameoApp&#45;&gt;CS</title>
<path fill="none" stroke="#000000" d="M146.9794,-439.0742C157.3011,-441.7881 167.9507,-444.5254 178,-447 237.5928,-461.6744 306.0921,-476.9767 353.6061,-487.3444"/>
<polygon fill="#000000" stroke="#000000" points="352.9002,-490.7727 363.4158,-489.4799 354.3892,-483.9328 352.9002,-490.7727"/>
<text text-anchor="middle" x="256.5" y="-486.8" font-family="Times,serif" font-size="14.00" fill="#000000">connect</text>
</g>
<!-- ServerCameoApp -->
<g id="node9" class="node">
<title>ServerCameoApp</title>
<path fill="none" stroke="#000000" d="M365,-405C365,-405 460,-405 460,-405 466,-405 472,-411 472,-417 472,-417 472,-429 472,-429 472,-435 466,-441 460,-441 460,-441 365,-441 365,-441 359,-441 353,-435 353,-429 353,-429 353,-417 353,-417 353,-411 359,-405 365,-405"/>
<text text-anchor="middle" x="412.5" y="-419.3" font-family="Times,serif" font-size="14.00" fill="#000000">ServerCameoApp</text>
</g>
<!-- ClientCameoApp&#45;&gt;ServerCameoApp -->
<g id="edge3" class="edge">
<title>ClientCameoApp&#45;&gt;ServerCameoApp</title>
<path fill="none" stroke="#000000" stroke-dasharray="5,2" d="M146.7645,-423C201.813,-423 284.1383,-423 342.5493,-423"/>
<polygon fill="#000000" stroke="#000000" points="342.8009,-426.5001 352.8008,-423 342.8008,-419.5001 342.8009,-426.5001"/>
<text text-anchor="middle" x="256.5" y="-426.8" font-family="Times,serif" font-size="14.00" fill="#000000">start</text>
</g>
<!-- Requester -->
<g id="node6" class="node">
<title>Requester</title>
<path fill="none" stroke="#000000" d="M63.5,-332C63.5,-332 112.5,-332 112.5,-332 118.5,-332 124.5,-338 124.5,-344 124.5,-344 124.5,-356 124.5,-356 124.5,-362 118.5,-368 112.5,-368 112.5,-368 63.5,-368 63.5,-368 57.5,-368 51.5,-362 51.5,-356 51.5,-356 51.5,-344 51.5,-344 51.5,-338 57.5,-332 63.5,-332"/>
<text text-anchor="middle" x="88" y="-346.3" font-family="Times,serif" font-size="14.00" fill="#000000">Requester</text>
</g>
<!-- Responder -->
<g id="node10" class="node">
<title>Responder</title>
<path fill="none" stroke="#000000" d="M385.5,-332C385.5,-332 439.5,-332 439.5,-332 445.5,-332 451.5,-338 451.5,-344 451.5,-344 451.5,-356 451.5,-356 451.5,-362 445.5,-368 439.5,-368 439.5,-368 385.5,-368 385.5,-368 379.5,-368 373.5,-362 373.5,-356 373.5,-356 373.5,-344 373.5,-344 373.5,-338 379.5,-332 385.5,-332"/>
<text text-anchor="middle" x="412.5" y="-346.3" font-family="Times,serif" font-size="14.00" fill="#000000">Responder</text>
</g>
<!-- Requester&#45;&gt;Responder -->
<g id="edge5" class="edge">
<title>Requester&#45;&gt;Responder</title>
<path fill="none" stroke="#000000" d="M124.5935,-350C183.0434,-350 297.5518,-350 363.1728,-350"/>
<polygon fill="#000000" stroke="#000000" points="363.2688,-353.5001 373.2688,-350 363.2687,-346.5001 363.2688,-353.5001"/>
<text text-anchor="middle" x="256.5" y="-353.8" font-family="Times,serif" font-size="14.00" fill="#000000">send SimRequest</text>
</g>
<!-- Subscriber -->
<g id="node7" class="node">
<title>Subscriber</title>
<path fill="none" stroke="#000000" d="M61.5,-259C61.5,-259 114.5,-259 114.5,-259 120.5,-259 126.5,-265 126.5,-271 126.5,-271 126.5,-283 126.5,-283 126.5,-289 120.5,-295 114.5,-295 114.5,-295 61.5,-295 61.5,-295 55.5,-295 49.5,-289 49.5,-283 49.5,-283 49.5,-271 49.5,-271 49.5,-265 55.5,-259 61.5,-259"/>
<text text-anchor="middle" x="88" y="-273.3" font-family="Times,serif" font-size="14.00" fill="#000000">Subscriber</text>
</g>
<!-- Publisher -->
<g id="node11" class="node">
<title>Publisher</title>
<path fill="none" stroke="#000000" d="M389,-259C389,-259 436,-259 436,-259 442,-259 448,-265 448,-271 448,-271 448,-283 448,-283 448,-289 442,-295 436,-295 436,-295 389,-295 389,-295 383,-295 377,-289 377,-283 377,-283 377,-271 377,-271 377,-265 383,-259 389,-259"/>
<text text-anchor="middle" x="412.5" y="-273.3" font-family="Times,serif" font-size="14.00" fill="#000000">Publisher</text>
</g>
<!-- Subscriber&#45;&gt;Publisher -->
<g id="edge7" class="edge">
<title>Subscriber&#45;&gt;Publisher</title>
<path fill="none" stroke="#000000" d="M126.82,-277C186.8974,-277 302.1515,-277 366.383,-277"/>
<polygon fill="#000000" stroke="#000000" points="366.6177,-280.5001 376.6177,-277 366.6176,-273.5001 366.6177,-280.5001"/>
<text text-anchor="middle" x="256.5" y="-280.8" font-family="Times,serif" font-size="14.00" fill="#000000">subscribe to</text>
</g>
<!-- Responder&#45;&gt;Requester -->
<g id="edge6" class="edge">
<title>Responder&#45;&gt;Requester</title>
<path fill="none" stroke="#000000" d="M373.2105,-335.3314C361.1295,-331.5043 347.6734,-327.9174 335,-326 266.0074,-315.5618 247.1863,-316.9336 178,-326 163.6784,-327.8767 148.3944,-331.3655 134.563,-335.113"/>
<polygon fill="#000000" stroke="#000000" points="133.4591,-331.7877 124.7828,-337.8681 135.3572,-338.5254 133.4591,-331.7877"/>
<text text-anchor="middle" x="256.5" y="-329.8" font-family="Times,serif" font-size="14.00" fill="#000000">receive SimRequestAnswer</text>
</g>
<!-- Publisher&#45;&gt;Subscriber -->
<g id="edge8" class="edge">
<title>Publisher&#45;&gt;Subscriber</title>
<path fill="none" stroke="#000000" d="M376.7526,-263.4726C363.7988,-259.2301 348.9268,-255.107 335,-253 266.0074,-242.5618 247.1863,-243.9336 178,-253 164.3286,-254.7916 149.7801,-258.0521 136.4554,-261.6044"/>
<polygon fill="#000000" stroke="#000000" points="135.238,-258.3099 126.5392,-264.3582 137.1111,-265.0547 135.238,-258.3099"/>
<text text-anchor="middle" x="256.5" y="-256.8" font-family="Times,serif" font-size="14.00" fill="#000000">publish SimResult</text>
</g>
<!-- Scheduler -->
<g id="node12" class="node">
<title>Scheduler</title>
<path fill="none" stroke="#000000" d="M387.5,-186C387.5,-186 437.5,-186 437.5,-186 443.5,-186 449.5,-192 449.5,-198 449.5,-198 449.5,-210 449.5,-210 449.5,-216 443.5,-222 437.5,-222 437.5,-222 387.5,-222 387.5,-222 381.5,-222 375.5,-216 375.5,-210 375.5,-210 375.5,-198 375.5,-198 375.5,-192 381.5,-186 387.5,-186"/>
<text text-anchor="middle" x="412.5" y="-200.3" font-family="Times,serif" font-size="14.00" fill="#000000">Scheduler</text>
</g>
<!-- Stage0 -->
<g id="node13" class="node">
<title>Stage0</title>
<path fill="none" stroke="#000000" d="M691.5,-259C691.5,-259 723.5,-259 723.5,-259 729.5,-259 735.5,-265 735.5,-271 735.5,-271 735.5,-283 735.5,-283 735.5,-289 729.5,-295 723.5,-295 723.5,-295 691.5,-295 691.5,-295 685.5,-295 679.5,-289 679.5,-283 679.5,-283 679.5,-271 679.5,-271 679.5,-265 685.5,-259 691.5,-259"/>
<text text-anchor="middle" x="707.5" y="-273.3" font-family="Times,serif" font-size="14.00" fill="#000000">Stage0</text>
</g>
<!-- Scheduler&#45;&gt;Stage0 -->
<g id="edge9" class="edge">
<title>Scheduler&#45;&gt;Stage0</title>
<path fill="none" stroke="#000000" stroke-dasharray="5,2" d="M449.5002,-219.3049C460.2383,-224.9887 471.3803,-232.233 480,-241 486.6903,-247.8046 482.0293,-254.7532 490,-260 544.1183,-295.624 623.0271,-291.2298 669.4315,-284.3923"/>
<polygon fill="#000000" stroke="#000000" points="670.0491,-287.8382 679.3776,-282.8153 668.9529,-280.9246 670.0491,-287.8382"/>
<text text-anchor="middle" x="562.5" y="-292.8" font-family="Times,serif" font-size="14.00" fill="#000000">start and check execution</text>
</g>
<!-- s -->
<g id="node14" class="node">
<title>s</title>
<path fill="none" stroke="#000000" d="M692.5,-186C692.5,-186 722.5,-186 722.5,-186 728.5,-186 734.5,-192 734.5,-198 734.5,-198 734.5,-210 734.5,-210 734.5,-216 728.5,-222 722.5,-222 722.5,-222 692.5,-222 692.5,-222 686.5,-222 680.5,-216 680.5,-210 680.5,-210 680.5,-198 680.5,-198 680.5,-192 686.5,-186 692.5,-186"/>
<text text-anchor="middle" x="707.5" y="-200.3" font-family="Times,serif" font-size="14.00" fill="#000000">...</text>
</g>
<!-- Scheduler&#45;&gt;s -->
<g id="edge10" class="edge">
<title>Scheduler&#45;&gt;s</title>
<path fill="none" stroke="#000000" stroke-dasharray="5,2" d="M446.6284,-185.9633C502.428,-174.217 612.7361,-174.0157 670.4038,-185.3594"/>
<polygon fill="#000000" stroke="#000000" points="669.6786,-188.7835 680.1987,-187.5276 671.1915,-181.949 669.6786,-188.7835"/>
</g>
<!-- Scheduler&#45;&gt;s -->
<g id="edge11" class="edge">
<title>Scheduler&#45;&gt;s</title>
<path fill="none" stroke="#000000" stroke-dasharray="5,2" d="M449.5633,-204C506.1154,-204 613.3461,-204 670.0992,-204"/>
<polygon fill="#000000" stroke="#000000" points="670.4162,-207.5001 680.4161,-204 670.4161,-200.5001 670.4162,-207.5001"/>
</g>
<!-- Scheduler&#45;&gt;s -->
<g id="edge12" class="edge">
<title>Scheduler&#45;&gt;s</title>
<path fill="none" stroke="#000000" stroke-dasharray="5,2" d="M446.6284,-222.0367C502.428,-233.783 612.7361,-233.9843 670.4038,-222.6406"/>
<polygon fill="#000000" stroke="#000000" points="671.1915,-226.051 680.1987,-220.4724 669.6786,-219.2165 671.1915,-226.051"/>
</g>
<!-- StageN -->
<g id="node15" class="node">
<title>StageN</title>
<path fill="none" stroke="#000000" d="M690,-113C690,-113 725,-113 725,-113 731,-113 737,-119 737,-125 737,-125 737,-137 737,-137 737,-143 731,-149 725,-149 725,-149 690,-149 690,-149 684,-149 678,-143 678,-137 678,-137 678,-125 678,-125 678,-119 684,-113 690,-113"/>
<text text-anchor="middle" x="707.5" y="-127.3" font-family="Times,serif" font-size="14.00" fill="#000000">StageN</text>
</g>
<!-- Scheduler&#45;&gt;StageN -->
<g id="edge13" class="edge">
<title>Scheduler&#45;&gt;StageN</title>
<path fill="none" stroke="#000000" stroke-dasharray="5,2" d="M449.5633,-194.8284C505.4747,-180.9927 610.9226,-154.8988 668.1508,-140.7373"/>
<polygon fill="#000000" stroke="#000000" points="669.0499,-144.1204 677.9163,-138.3207 667.3683,-137.3254 669.0499,-144.1204"/>
</g>
<!-- Output -->
<g id="node16" class="node">
<title>Output</title>
<path fill="none" stroke="#000000" d="M691,-40C691,-40 724,-40 724,-40 730,-40 736,-46 736,-52 736,-52 736,-64 736,-64 736,-70 730,-76 724,-76 724,-76 691,-76 691,-76 685,-76 679,-70 679,-64 679,-64 679,-52 679,-52 679,-46 685,-40 691,-40"/>
<text text-anchor="middle" x="707.5" y="-54.3" font-family="Times,serif" font-size="14.00" fill="#000000">Output</text>
</g>
<!-- Output&#45;&gt;Scheduler -->
<g id="edge14" class="edge">
<title>Output&#45;&gt;Scheduler</title>
<path fill="none" stroke="#000000" d="M678.7899,-62.0031C633.315,-69.7393 544.3197,-90.7463 490,-142 482.1881,-149.371 487.1724,-156.0053 480,-164 473.8542,-170.8504 466.2508,-176.8711 458.3873,-182.0227"/>
<polygon fill="#000000" stroke="#000000" points="456.5135,-179.0661 449.8092,-187.2699 460.1662,-185.0375 456.5135,-179.0661"/>
<text text-anchor="middle" x="510.7136" y="-89.1288" font-family="Times,serif" font-size="14.00" fill="#000000">read from disk</text>
</g>
</g>
</svg>
